# xmcd
#
# Track frame offsets:
#	150
#	20111
#	44066
#	64944
#	87359
#	102357
#	121688
#	156779
#	167390
#	189284
#
# Disc length: 2981 seconds
#
# Revision: 1
# Processed by: cddbd v1.5.2PL0 Copyright (c) Steve Scherf et al.
# Submitted via: audiograbber 1.83.01
#
DISCID=7d0ba30a
DTITLE=Blue Note Blues Band - Can't Get Enough
DYEAR=2013
DGENRE=Blues
TTITLE0=Big Easy
TTITLE1=The Blues is Alright
TTITLE2=Messin' with the Kid
TTITLE3=Livin for the City
TTITLE4=I'm the One
TTITLE5=Born in Chicago
TTITLE6=Could have had all your lovin'
TTITLE7=Trace of You
TTITLE8=Feelin' Alright
TTITLE9=Mojo Working
EXTD=
EXTT0=
EXTT1=
EXTT2=
EXTT3=
EXTT4=
EXTT5=
EXTT6=
EXTT7=
EXTT8=
EXTT9=
PLAYORDER=
